<svg xmlns="http://www.w3.org/2000/svg" width="480pt" height="290pt" viewBox="0 0 480 290" version="1.1" xmlns:xlink="http://www.w3.org/1999/xlink">
  <g id="surface2" transform="matrix(1,0,0,1,1,53)">
    <path style="stroke:none;fill-rule:evenodd;fill:rgb(34.509804%,34.901961%,35.686275%);fill-opacity:1" d="M 243.601562 146.851562 C 254.667969 146.882812 265.382812 147.449219 275.750000 148.550781 C 286.082031 149.648438 295.917969 151.250000 305.250000 153.351562 C 314.617188 155.417969 323.332031 157.917969 331.398438 160.851562 C 324.601562 156.917969 316.601562 153.500000 307.398438 150.601562 C 298.167969 147.699219 288.050781 145.449219 277.050781 143.851562 C 266.050781 142.285156 254.433594 141.484375 242.199219 141.449219 C 232.332031 141.449219 222.851562 141.984375 213.750000 143.050781 C 204.648438 144.082031 196.066406 145.582031 188.000000 147.550781 C 179.964844 149.515625 172.632812 151.851562 166.000000 154.550781 C 159.332031 157.285156 153.515625 160.316406 148.550781 163.648438 C 156.949219 160.148438 166.183594 157.148438 176.250000 154.648438 C 186.285156 152.148438 196.964844 150.234375 208.300781 148.898438 C 219.632812 147.566406 231.398438 146.882812 243.601562 146.851562 "/>
    <path style="stroke:none;fill-rule:evenodd;fill:rgb(26.666667%,49.803922%,75.686275%);fill-opacity:1" d="M 240.398438 137.699219 C 253.066406 137.699219 265.117188 138.500000 276.550781 140.101562 C 287.949219 141.699219 298.449219 143.949219 308.050781 146.851562 L 308.101562 132.750000 L 295.300781 132.750000 L 295.300781 119.949219 L 283.101562 119.949219 L 283.101562 106.500000 L 268.500000 106.500000 L 268.500000 68.800781 L 246.250000 68.800781 L 246.250000 132.750000 L 234.648438 132.750000 L 234.648438 83.949219 L 210.601562 83.949219 L 210.601562 132.750000 L 204.000000 132.750000 L 204.000000 104.148438 L 195.648438 92.851562 L 187.351562 104.148438 L 187.351562 132.750000 L 172.699219 132.750000 L 172.699219 146.851562 C 182.265625 143.949219 192.765625 141.699219 204.199219 140.101562 C 215.632812 138.500000 227.699219 137.699219 240.398438 137.699219 "/>
    <path style="stroke:none;fill-rule:evenodd;fill:rgb(48.627451%,45.882353%,68.627451%);fill-opacity:1" d="M 268.500000 68.800781 L 246.199219 68.800781 L 246.199219 116.250000 C 252.765625 116.117188 259.132812 115.765625 265.300781 115.199219 C 271.464844 114.667969 277.382812 113.933594 283.050781 113.000000 L 283.050781 106.500000 L 268.500000 106.500000 L 268.500000 68.800781 M 210.550781 114.851562 C 218.285156 115.648438 226.316406 116.117188 234.648438 116.250000 L 234.648438 83.949219 L 210.550781 83.949219 L 210.550781 114.851562 M 187.351562 111.300781 L 187.351562 104.148438 L 195.601562 92.851562 L 204.000000 104.148438 L 204.000000 114.050781 C 198.167969 113.285156 192.617188 112.367188 187.351562 111.300781 "/>
  </g>
  <g id="surface4">
    <text style="fill:rgb(57,93,206)" font-family="Albertus Medium" font-size="37" transform="matrix(1,0,0,1,8,111)" xml:space="preserve"><![CDATA[REGAL INVESTMENTS Inc.]]></text>
  </g>
</svg>